<svg width="259" height="136" viewBox="0 0 259 136" fill="none" xmlns="http://www.w3.org/2000/svg">
<path d="M205.333 93.4819L245.177 70.5713L238.124 58.4036L197.406 81.8164C195.841 79.8728 194.193 77.9979 192.468 76.1969L226.058 42.7433L216.083 32.8084L181.922 66.831C180.017 65.3969 178.051 64.039 176.029 62.7619L200.359 20.7919L188.141 13.7668L163.53 56.2222C161.407 55.3228 159.24 54.505 157.035 53.7727L169.83 6.21292L156.204 2.5765L143.329 50.4323C141.098 50.0774 138.838 49.807 136.554 49.6245V0H122.446V49.6245C120.162 49.807 117.903 50.0774 115.671 50.4323L102.796 2.5765L89.1697 6.21292L101.965 53.7727C99.7595 54.505 97.5931 55.3228 95.47 56.2223L70.8586 13.7668L58.6414 20.7919L82.9714 62.7619C80.9491 64.039 78.9832 65.3969 77.0784 66.8311L42.9173 32.8084L32.942 42.7433L66.5318 76.197C64.8069 77.998 63.1591 79.8728 61.5936 81.8164L20.8765 58.4036L13.8229 70.5713L53.6667 93.4819C52.3744 95.7634 51.1828 98.109 50.0981 100.513L6.23821 88.8082L2.58699 102.379L45.3733 113.798C44.665 116.467 44.0813 119.186 43.629 121.95H0V136H259V121.95H215.371C214.919 119.186 214.335 116.467 213.627 113.798L256.413 102.379L252.762 88.8082L208.902 100.513C207.817 98.109 206.626 95.7634 205.333 93.4819Z" fill="white"/>
</svg>
